<?xml version="1.0" encoding="us-ascii" standalone="no"?><svg xmlns="http://www.w3.org/2000/svg" xmlns:xlink="http://www.w3.org/1999/xlink" contentStyleType="text/css" height="2619px" preserveAspectRatio="none" style="width:2318px;height:2619px;background:#FFFFFF;" version="1.1" viewBox="0 0 2318 2619" width="2318px" zoomAndPan="magnify"><defs/><g><line style="stroke:#181818;stroke-width:0.5;stroke-dasharray:5.0,5.0;" x1="24" x2="24" y1="81.2969" y2="2538.5234"/><line style="stroke:#181818;stroke-width:0.5;stroke-dasharray:5.0,5.0;" x1="300" x2="300" y1="81.2969" y2="2538.5234"/><line style="stroke:#181818;stroke-width:0.5;stroke-dasharray:5.0,5.0;" x1="488.5" x2="488.5" y1="81.2969" y2="2538.5234"/><line style="stroke:#181818;stroke-width:0.5;stroke-dasharray:5.0,5.0;" x1="757" x2="757" y1="81.2969" y2="2538.5234"/><line style="stroke:#181818;stroke-width:0.5;stroke-dasharray:5.0,5.0;" x1="868" x2="868" y1="81.2969" y2="2538.5234"/><line style="stroke:#181818;stroke-width:0.5;stroke-dasharray:5.0,5.0;" x1="1179" x2="1179" y1="81.2969" y2="2538.5234"/><line style="stroke:#181818;stroke-width:0.5;stroke-dasharray:5.0,5.0;" x1="1282" x2="1282" y1="81.2969" y2="2538.5234"/><line style="stroke:#181818;stroke-width:0.5;stroke-dasharray:5.0,5.0;" x1="1425" x2="1425" y1="81.2969" y2="2538.5234"/><line style="stroke:#181818;stroke-width:0.5;stroke-dasharray:5.0,5.0;" x1="1584" x2="1584" y1="81.2969" y2="2538.5234"/><line style="stroke:#181818;stroke-width:0.5;stroke-dasharray:5.0,5.0;" x1="1726" x2="1726" y1="81.2969" y2="2538.5234"/><line style="stroke:#181818;stroke-width:0.5;stroke-dasharray:5.0,5.0;" x1="1862" x2="1862" y1="81.2969" y2="2538.5234"/><line style="stroke:#181818;stroke-width:0.5;stroke-dasharray:5.0,5.0;" x1="1995" x2="1995" y1="81.2969" y2="2538.5234"/><line style="stroke:#181818;stroke-width:0.5;stroke-dasharray:5.0,5.0;" x1="2259" x2="2259" y1="81.2969" y2="2538.5234"/><text fill="#000000" font-family="sans-serif" font-size="14" lengthAdjust="spacing" textLength="32" x="5" y="77.9951">User</text><ellipse cx="24" cy="13.5" fill="#E2E2F0" rx="8" ry="8" style="stroke:#181818;stroke-width:0.5;"/><path d="M24,21.5 L24,48.5 M11,29.5 L37,29.5 M24,48.5 L11,63.5 M24,48.5 L37,63.5 " fill="none" style="stroke:#181818;stroke-width:0.5;"/><text fill="#000000" font-family="sans-serif" font-size="14" lengthAdjust="spacing" textLength="32" x="5" y="2550.5186">User</text><ellipse cx="24" cy="2562.3203" fill="#E2E2F0" rx="8" ry="8" style="stroke:#181818;stroke-width:0.5;"/><path d="M24,2570.3203 L24,2597.3203 M11,2578.3203 L37,2578.3203 M24,2597.3203 L11,2612.3203 M24,2597.3203 L37,2612.3203 " fill="none" style="stroke:#181818;stroke-width:0.5;"/><text fill="#000000" font-family="sans-serif" font-size="14" lengthAdjust="spacing" textLength="76" x="259" y="77.9951">Dashboard</text><ellipse cx="300" cy="49" fill="#E2E2F0" rx="12" ry="12" style="stroke:#181818;stroke-width:0.5;"/><polygon fill="#181818" points="296,37,302,32,300,37,302,42,296,37" style="stroke:#181818;stroke-width:1.0;"/><text fill="#000000" font-family="sans-serif" font-size="14" lengthAdjust="spacing" textLength="76" x="259" y="2550.5186">Dashboard</text><ellipse cx="300" cy="2569.8203" fill="#E2E2F0" rx="12" ry="12" style="stroke:#181818;stroke-width:0.5;"/><polygon fill="#181818" points="296,2557.8203,302,2552.8203,300,2557.8203,302,2562.8203,296,2557.8203" style="stroke:#181818;stroke-width:1.0;"/><text fill="#000000" font-family="sans-serif" font-size="14" lengthAdjust="spacing" textLength="131" x="420.5" y="77.9951">AdmissionManager</text><ellipse cx="489" cy="49" fill="#E2E2F0" rx="12" ry="12" style="stroke:#181818;stroke-width:0.5;"/><polygon fill="#181818" points="485,37,491,32,489,37,491,42,485,37" style="stroke:#181818;stroke-width:1.0;"/><text fill="#000000" font-family="sans-serif" font-size="14" lengthAdjust="spacing" textLength="131" x="420.5" y="2550.5186">AdmissionManager</text><ellipse cx="489" cy="2569.8203" fill="#E2E2F0" rx="12" ry="12" style="stroke:#181818;stroke-width:0.5;"/><polygon fill="#181818" points="485,2557.8203,491,2552.8203,489,2557.8203,491,2562.8203,485,2557.8203" style="stroke:#181818;stroke-width:1.0;"/><text fill="#000000" font-family="sans-serif" font-size="14" lengthAdjust="spacing" textLength="92" x="708" y="77.9951">UserManager</text><ellipse cx="757" cy="49" fill="#E2E2F0" rx="12" ry="12" style="stroke:#181818;stroke-width:0.5;"/><polygon fill="#181818" points="753,37,759,32,757,37,759,42,753,37" style="stroke:#181818;stroke-width:1.0;"/><text fill="#000000" font-family="sans-serif" font-size="14" lengthAdjust="spacing" textLength="92" x="708" y="2550.5186">UserManager</text><ellipse cx="757" cy="2569.8203" fill="#E2E2F0" rx="12" ry="12" style="stroke:#181818;stroke-width:0.5;"/><polygon fill="#181818" points="753,2557.8203,759,2552.8203,757,2557.8203,759,2562.8203,753,2557.8203" style="stroke:#181818;stroke-width:1.0;"/><text fill="#000000" font-family="sans-serif" font-size="14" lengthAdjust="spacing" textLength="98" x="816" y="77.9951">NewsManager</text><ellipse cx="868" cy="49" fill="#E2E2F0" rx="12" ry="12" style="stroke:#181818;stroke-width:0.5;"/><polygon fill="#181818" points="864,37,870,32,868,37,870,42,864,37" style="stroke:#181818;stroke-width:1.0;"/><text fill="#000000" font-family="sans-serif" font-size="14" lengthAdjust="spacing" textLength="98" x="816" y="2550.5186">NewsManager</text><ellipse cx="868" cy="2569.8203" fill="#E2E2F0" rx="12" ry="12" style="stroke:#181818;stroke-width:0.5;"/><polygon fill="#181818" points="864,2557.8203,870,2552.8203,868,2557.8203,870,2562.8203,864,2557.8203" style="stroke:#181818;stroke-width:1.0;"/><text fill="#000000" font-family="sans-serif" font-size="14" lengthAdjust="spacing" textLength="68" x="1142" y="77.9951">NewsItem</text><ellipse cx="1179" cy="49" fill="#E2E2F0" rx="12" ry="12" style="stroke:#181818;stroke-width:0.5;"/><line style="stroke:#181818;stroke-width:0.5;" x1="1167" x2="1191" y1="63" y2="63"/><text fill="#000000" font-family="sans-serif" font-size="14" lengthAdjust="spacing" textLength="68" x="1142" y="2550.5186">NewsItem</text><ellipse cx="1179" cy="2569.8203" fill="#E2E2F0" rx="12" ry="12" style="stroke:#181818;stroke-width:0.5;"/><line style="stroke:#181818;stroke-width:0.5;" x1="1167" x2="1191" y1="2583.8203" y2="2583.8203"/><text fill="#000000" font-family="sans-serif" font-size="14" lengthAdjust="spacing" textLength="106" x="1226" y="77.9951">AdmissionForm</text><ellipse cx="1282" cy="49" fill="#E2E2F0" rx="12" ry="12" style="stroke:#181818;stroke-width:0.5;"/><line style="stroke:#181818;stroke-width:0.5;" x1="1270" x2="1294" y1="63" y2="63"/><text fill="#000000" font-family="sans-serif" font-size="14" lengthAdjust="spacing" textLength="106" x="1226" y="2550.5186">AdmissionForm</text><ellipse cx="1282" cy="2569.8203" fill="#E2E2F0" rx="12" ry="12" style="stroke:#181818;stroke-width:0.5;"/><line style="stroke:#181818;stroke-width:0.5;" x1="1270" x2="1294" y1="2583.8203" y2="2583.8203"/><rect fill="#E2E2F0" height="30.2969" rx="2.5" ry="2.5" style="stroke:#181818;stroke-width:0.5;" width="154" x="1348" y="50"/><text fill="#000000" font-family="sans-serif" font-size="14" lengthAdjust="spacing" textLength="140" x="1355" y="69.9951">AttendanceManager</text><rect fill="#E2E2F0" height="30.2969" rx="2.5" ry="2.5" style="stroke:#181818;stroke-width:0.5;" width="154" x="1348" y="2537.5234"/><text fill="#000000" font-family="sans-serif" font-size="14" lengthAdjust="spacing" textLength="140" x="1355" y="2557.5186">AttendanceManager</text><rect fill="#E2E2F0" height="30.2969" rx="2.5" ry="2.5" style="stroke:#181818;stroke-width:0.5;" width="144" x="1512" y="50"/><text fill="#000000" font-family="sans-serif" font-size="14" lengthAdjust="spacing" textLength="130" x="1519" y="69.9951">AttendanceRecord</text><rect fill="#E2E2F0" height="30.2969" rx="2.5" ry="2.5" style="stroke:#181818;stroke-width:0.5;" width="144" x="1512" y="2537.5234"/><text fill="#000000" font-family="sans-serif" font-size="14" lengthAdjust="spacing" textLength="130" x="1519" y="2557.5186">AttendanceRecord</text><rect fill="#E2E2F0" height="30.2969" rx="2.5" ry="2.5" style="stroke:#181818;stroke-width:0.5;" width="121" x="1666" y="50"/><text fill="#000000" font-family="sans-serif" font-size="14" lengthAdjust="spacing" textLength="107" x="1673" y="69.9951">ExamScheduler</text><rect fill="#E2E2F0" height="30.2969" rx="2.5" ry="2.5" style="stroke:#181818;stroke-width:0.5;" width="121" x="1666" y="2537.5234"/><text fill="#000000" font-family="sans-serif" font-size="14" lengthAdjust="spacing" textLength="107" x="1673" y="2557.5186">ExamScheduler</text><rect fill="#E2E2F0" height="30.2969" rx="2.5" ry="2.5" style="stroke:#181818;stroke-width:0.5;" width="131" x="1797" y="50"/><text fill="#000000" font-family="sans-serif" font-size="14" lengthAdjust="spacing" textLength="117" x="1804" y="69.9951">ReportGenerator</text><rect fill="#E2E2F0" height="30.2969" rx="2.5" ry="2.5" style="stroke:#181818;stroke-width:0.5;" width="131" x="1797" y="2537.5234"/><text fill="#000000" font-family="sans-serif" font-size="14" lengthAdjust="spacing" textLength="117" x="1804" y="2557.5186">ReportGenerator</text><rect fill="#E2E2F0" height="30.2969" rx="2.5" ry="2.5" style="stroke:#181818;stroke-width:0.5;" width="114" x="1938" y="50"/><text fill="#000000" font-family="sans-serif" font-size="14" lengthAdjust="spacing" textLength="100" x="1945" y="69.9951">LeaveManager</text><rect fill="#E2E2F0" height="30.2969" rx="2.5" ry="2.5" style="stroke:#181818;stroke-width:0.5;" width="114" x="1938" y="2537.5234"/><text fill="#000000" font-family="sans-serif" font-size="14" lengthAdjust="spacing" textLength="100" x="1945" y="2557.5186">LeaveManager</text><rect fill="#E2E2F0" height="30.2969" rx="2.5" ry="2.5" style="stroke:#181818;stroke-width:0.5;" width="94" x="2212" y="50"/><text fill="#000000" font-family="sans-serif" font-size="14" lengthAdjust="spacing" textLength="80" x="2219" y="69.9951">HRManager</text><rect fill="#E2E2F0" height="30.2969" rx="2.5" ry="2.5" style="stroke:#181818;stroke-width:0.5;" width="94" x="2212" y="2537.5234"/><text fill="#000000" font-family="sans-serif" font-size="14" lengthAdjust="spacing" textLength="80" x="2219" y="2557.5186">HRManager</text><rect fill="#EEEEEE" height="3" style="stroke:#EEEEEE;stroke-width:1.0;" width="2311" x="0" y="111.8633"/><line style="stroke:#000000;stroke-width:1.0;" x1="0" x2="2311" y1="111.8633" y2="111.8633"/><line style="stroke:#000000;stroke-width:1.0;" x1="0" x2="2311" y1="114.8633" y2="114.8633"/><rect fill="#EEEEEE" height="23.1328" style="stroke:#000000;stroke-width:2.0;" width="227" x="1042" y="101.2969"/><text fill="#000000" font-family="sans-serif" font-size="13" font-weight="bold" lengthAdjust="spacing" textLength="208" x="1048" y="117.3638">Display News on Dashboard</text><polygon fill="#181818" points="288,151.5625,298,155.5625,288,159.5625,292,155.5625" style="stroke:#181818;stroke-width:1.0;"/><line style="stroke:#181818;stroke-width:1.0;" x1="24" x2="294" y1="155.5625" y2="155.5625"/><text fill="#000000" font-family="sans-serif" font-size="13" lengthAdjust="spacing" textLength="93" x="31" y="150.4966">requestNews()</text><polygon fill="#181818" points="856,180.6953,866,184.6953,856,188.6953,860,184.6953" style="stroke:#181818;stroke-width:1.0;"/><line style="stroke:#181818;stroke-width:1.0;" x1="300" x2="862" y1="184.6953" y2="184.6953"/><text fill="#000000" font-family="sans-serif" font-size="13" lengthAdjust="spacing" textLength="105" x="307" y="179.6294">getLatestNews()</text><polygon fill="#181818" points="1167,209.8281,1177,213.8281,1167,217.8281,1171,213.8281" style="stroke:#181818;stroke-width:1.0;"/><line style="stroke:#181818;stroke-width:1.0;" x1="868" x2="1173" y1="213.8281" y2="213.8281"/><text fill="#000000" font-family="sans-serif" font-size="13" lengthAdjust="spacing" textLength="112" x="875" y="208.7622">fetchNewsItems()</text><polygon fill="#181818" points="879,238.9609,869,242.9609,879,246.9609,875,242.9609" style="stroke:#181818;stroke-width:1.0;"/><line style="stroke:#181818;stroke-width:1.0;stroke-dasharray:2.0,2.0;" x1="873" x2="1178" y1="242.9609" y2="242.9609"/><text fill="#000000" font-family="sans-serif" font-size="13" lengthAdjust="spacing" textLength="80" x="885" y="237.895">NewsItems[]</text><polygon fill="#181818" points="311,268.0938,301,272.0938,311,276.0938,307,272.0938" style="stroke:#181818;stroke-width:1.0;"/><line style="stroke:#181818;stroke-width:1.0;stroke-dasharray:2.0,2.0;" x1="305" x2="867" y1="272.0938" y2="272.0938"/><text fill="#000000" font-family="sans-serif" font-size="13" lengthAdjust="spacing" textLength="80" x="317" y="267.0278">NewsItems[]</text><polygon fill="#181818" points="35,297.2266,25,301.2266,35,305.2266,31,301.2266" style="stroke:#181818;stroke-width:1.0;"/><line style="stroke:#181818;stroke-width:1.0;stroke-dasharray:2.0,2.0;" x1="29" x2="299" y1="301.2266" y2="301.2266"/><text fill="#000000" font-family="sans-serif" font-size="13" lengthAdjust="spacing" textLength="158" x="41" y="296.1606">displayNews(NewsItems)</text><rect fill="#EEEEEE" height="3" style="stroke:#EEEEEE;stroke-width:1.0;" width="2311" x="0" y="329.793"/><line style="stroke:#000000;stroke-width:1.0;" x1="0" x2="2311" y1="329.793" y2="329.793"/><line style="stroke:#000000;stroke-width:1.0;" x1="0" x2="2311" y1="332.793" y2="332.793"/><rect fill="#EEEEEE" height="23.1328" style="stroke:#000000;stroke-width:2.0;" width="154" x="1078.5" y="319.2266"/><text fill="#000000" font-family="sans-serif" font-size="13" font-weight="bold" lengthAdjust="spacing" textLength="135" x="1084.5" y="335.2935">User Management</text><polygon fill="#181818" points="745,369.4922,755,373.4922,745,377.4922,749,373.4922" style="stroke:#181818;stroke-width:1.0;"/><line style="stroke:#181818;stroke-width:1.0;" x1="24" x2="751" y1="373.4922" y2="373.4922"/><text fill="#000000" font-family="sans-serif" font-size="13" lengthAdjust="spacing" textLength="167" x="31" y="368.4263">createNewUser(userData)</text><polygon fill="#181818" points="35,398.625,25,402.625,35,406.625,31,402.625" style="stroke:#181818;stroke-width:1.0;"/><line style="stroke:#181818;stroke-width:1.0;" x1="29" x2="756" y1="402.625" y2="402.625"/><text fill="#000000" font-family="sans-serif" font-size="13" lengthAdjust="spacing" textLength="89" x="41" y="397.5591">userCreated()</text><polygon fill="#181818" points="745,427.7578,755,431.7578,745,435.7578,749,431.7578" style="stroke:#181818;stroke-width:1.0;"/><line style="stroke:#181818;stroke-width:1.0;" x1="24" x2="751" y1="431.7578" y2="431.7578"/><text fill="#000000" font-family="sans-serif" font-size="13" lengthAdjust="spacing" textLength="138" x="31" y="426.6919">assignRole(user, role)</text><polygon fill="#181818" points="35,456.8906,25,460.8906,35,464.8906,31,460.8906" style="stroke:#181818;stroke-width:1.0;"/><line style="stroke:#181818;stroke-width:1.0;" x1="29" x2="756" y1="460.8906" y2="460.8906"/><text fill="#000000" font-family="sans-serif" font-size="13" lengthAdjust="spacing" textLength="92" x="41" y="455.8247">roleAssigned()</text><polygon fill="#181818" points="745,486.0234,755,490.0234,745,494.0234,749,490.0234" style="stroke:#181818;stroke-width:1.0;"/><line style="stroke:#181818;stroke-width:1.0;" x1="24" x2="751" y1="490.0234" y2="490.0234"/><text fill="#000000" font-family="sans-serif" font-size="13" lengthAdjust="spacing" textLength="186" x="31" y="484.9575">setPrivileges(user, privileges)</text><polygon fill="#181818" points="35,515.1563,25,519.1563,35,523.1563,31,519.1563" style="stroke:#181818;stroke-width:1.0;"/><line style="stroke:#181818;stroke-width:1.0;" x1="29" x2="756" y1="519.1563" y2="519.1563"/><text fill="#000000" font-family="sans-serif" font-size="13" lengthAdjust="spacing" textLength="92" x="41" y="514.0903">privilegesSet()</text><rect fill="#EEEEEE" height="3" style="stroke:#EEEEEE;stroke-width:1.0;" width="2311" x="0" y="547.7227"/><line style="stroke:#000000;stroke-width:1.0;" x1="0" x2="2311" y1="547.7227" y2="547.7227"/><line style="stroke:#000000;stroke-width:1.0;" x1="0" x2="2311" y1="550.7227" y2="550.7227"/><rect fill="#EEEEEE" height="23.1328" style="stroke:#000000;stroke-width:2.0;" width="248" x="1031.5" y="537.1563"/><text fill="#000000" font-family="sans-serif" font-size="13" font-weight="bold" lengthAdjust="spacing" textLength="229" x="1037.5" y="553.2231">Update Settings on Dashboard</text><polygon fill="#181818" points="288,587.4219,298,591.4219,288,595.4219,292,591.4219" style="stroke:#181818;stroke-width:1.0;"/><line style="stroke:#181818;stroke-width:1.0;" x1="24" x2="294" y1="591.4219" y2="591.4219"/><text fill="#000000" font-family="sans-serif" font-size="13" lengthAdjust="spacing" textLength="108" x="31" y="586.356">updateSettings()</text><polygon fill="#181818" points="35,616.5547,25,620.5547,35,624.5547,31,620.5547" style="stroke:#181818;stroke-width:1.0;"/><line style="stroke:#181818;stroke-width:1.0;" x1="29" x2="299" y1="620.5547" y2="620.5547"/><text fill="#000000" font-family="sans-serif" font-size="13" lengthAdjust="spacing" textLength="110" x="41" y="615.4888">Settings updated</text><rect fill="#EEEEEE" height="3" style="stroke:#EEEEEE;stroke-width:1.0;" width="2311" x="0" y="649.1211"/><line style="stroke:#000000;stroke-width:1.0;" x1="0" x2="2311" y1="649.1211" y2="649.1211"/><line style="stroke:#000000;stroke-width:1.0;" x1="0" x2="2311" y1="652.1211" y2="652.1211"/><rect fill="#EEEEEE" height="23.1328" style="stroke:#000000;stroke-width:2.0;" width="214" x="1048.5" y="638.5547"/><text fill="#000000" font-family="sans-serif" font-size="13" font-weight="bold" lengthAdjust="spacing" textLength="195" x="1054.5" y="654.6216">Initiate Admission Process</text><polygon fill="#181818" points="477,688.8203,487,692.8203,477,696.8203,481,692.8203" style="stroke:#181818;stroke-width:1.0;"/><line style="stroke:#181818;stroke-width:1.0;" x1="24" x2="483" y1="692.8203" y2="692.8203"/><text fill="#000000" font-family="sans-serif" font-size="13" lengthAdjust="spacing" textLength="169" x="31" y="687.7544">initiateAdmissionProcess()</text><polygon fill="#181818" points="1270,717.9531,1280,721.9531,1270,725.9531,1274,721.9531" style="stroke:#181818;stroke-width:1.0;"/><line style="stroke:#181818;stroke-width:1.0;" x1="489" x2="1276" y1="721.9531" y2="721.9531"/><text fill="#000000" font-family="sans-serif" font-size="13" lengthAdjust="spacing" textLength="167" x="496" y="716.8872">generateAdmissionForm()</text><polygon fill="#181818" points="500,747.0859,490,751.0859,500,755.0859,496,751.0859" style="stroke:#181818;stroke-width:1.0;"/><line style="stroke:#181818;stroke-width:1.0;stroke-dasharray:2.0,2.0;" x1="494" x2="1281" y1="751.0859" y2="751.0859"/><text fill="#000000" font-family="sans-serif" font-size="13" lengthAdjust="spacing" textLength="99" x="506" y="746.02">AdmissionForm</text><polygon fill="#181818" points="35,776.2188,25,780.2188,35,784.2188,31,780.2188" style="stroke:#181818;stroke-width:1.0;"/><line style="stroke:#181818;stroke-width:1.0;" x1="29" x2="488" y1="780.2188" y2="780.2188"/><text fill="#000000" font-family="sans-serif" font-size="13" lengthAdjust="spacing" textLength="176" x="41" y="775.1528">admissionFormGenerated()</text><rect fill="#EEEEEE" height="3" style="stroke:#EEEEEE;stroke-width:1.0;" width="2311" x="0" y="808.7852"/><line style="stroke:#000000;stroke-width:1.0;" x1="0" x2="2311" y1="808.7852" y2="808.7852"/><line style="stroke:#000000;stroke-width:1.0;" x1="0" x2="2311" y1="811.7852" y2="811.7852"/><rect fill="#EEEEEE" height="23.1328" style="stroke:#000000;stroke-width:2.0;" width="123" x="1094" y="798.2188"/><text fill="#000000" font-family="sans-serif" font-size="13" font-weight="bold" lengthAdjust="spacing" textLength="104" x="1100" y="814.2856">Manage News</text><polygon fill="#181818" points="856,848.4844,866,852.4844,856,856.4844,860,852.4844" style="stroke:#181818;stroke-width:1.0;"/><line style="stroke:#181818;stroke-width:1.0;" x1="24" x2="862" y1="852.4844" y2="852.4844"/><text fill="#000000" font-family="sans-serif" font-size="13" lengthAdjust="spacing" textLength="148" x="31" y="847.4185">createNews(newsData)</text><polygon fill="#181818" points="1167,877.6172,1177,881.6172,1167,885.6172,1171,881.6172" style="stroke:#181818;stroke-width:1.0;"/><line style="stroke:#181818;stroke-width:1.0;" x1="868" x2="1173" y1="881.6172" y2="881.6172"/><text fill="#000000" font-family="sans-serif" font-size="13" lengthAdjust="spacing" textLength="161" x="875" y="876.5513">newNewsItem(newsData)</text><polygon fill="#181818" points="879,906.75,869,910.75,879,914.75,875,910.75" style="stroke:#181818;stroke-width:1.0;"/><line style="stroke:#181818;stroke-width:1.0;stroke-dasharray:2.0,2.0;" x1="873" x2="1178" y1="910.75" y2="910.75"/><text fill="#000000" font-family="sans-serif" font-size="13" lengthAdjust="spacing" textLength="114" x="885" y="905.6841">NewsItemCreated</text><polygon fill="#181818" points="35,935.8828,25,939.8828,35,943.8828,31,939.8828" style="stroke:#181818;stroke-width:1.0;"/><line style="stroke:#181818;stroke-width:1.0;stroke-dasharray:2.0,2.0;" x1="29" x2="867" y1="939.8828" y2="939.8828"/><text fill="#000000" font-family="sans-serif" font-size="13" lengthAdjust="spacing" textLength="95" x="41" y="934.8169">NewsCreated()</text><polygon fill="#181818" points="856,965.0156,866,969.0156,856,973.0156,860,969.0156" style="stroke:#181818;stroke-width:1.0;"/><line style="stroke:#181818;stroke-width:1.0;" x1="24" x2="862" y1="969.0156" y2="969.0156"/><text fill="#000000" font-family="sans-serif" font-size="13" lengthAdjust="spacing" textLength="237" x="31" y="963.9497">editNews(newsId, updatedNewsData)</text><polygon fill="#181818" points="1167,994.1484,1177,998.1484,1167,1002.1484,1171,998.1484" style="stroke:#181818;stroke-width:1.0;"/><line style="stroke:#181818;stroke-width:1.0;" x1="868" x2="1173" y1="998.1484" y2="998.1484"/><text fill="#000000" font-family="sans-serif" font-size="13" lengthAdjust="spacing" textLength="287" x="875" y="993.0825">updateNewsItem(newsId, updatedNewsData)</text><polygon fill="#181818" points="879,1023.2813,869,1027.2813,879,1031.2813,875,1027.2813" style="stroke:#181818;stroke-width:1.0;"/><line style="stroke:#181818;stroke-width:1.0;stroke-dasharray:2.0,2.0;" x1="873" x2="1178" y1="1027.2813" y2="1027.2813"/><text fill="#000000" font-family="sans-serif" font-size="13" lengthAdjust="spacing" textLength="99" x="885" y="1022.2153">NewsUpdated()</text><polygon fill="#181818" points="35,1052.4141,25,1056.4141,35,1060.4141,31,1056.4141" style="stroke:#181818;stroke-width:1.0;"/><line style="stroke:#181818;stroke-width:1.0;stroke-dasharray:2.0,2.0;" x1="29" x2="867" y1="1056.4141" y2="1056.4141"/><text fill="#000000" font-family="sans-serif" font-size="13" lengthAdjust="spacing" textLength="84" x="41" y="1051.3481">NewsEdited()</text><rect fill="#EEEEEE" height="3" style="stroke:#EEEEEE;stroke-width:1.0;" width="2311" x="0" y="1084.9805"/><line style="stroke:#000000;stroke-width:1.0;" x1="0" x2="2311" y1="1084.9805" y2="1084.9805"/><line style="stroke:#000000;stroke-width:1.0;" x1="0" x2="2311" y1="1087.9805" y2="1087.9805"/><rect fill="#EEEEEE" height="23.1328" style="stroke:#000000;stroke-width:2.0;" width="158" x="1076.5" y="1074.4141"/><text fill="#000000" font-family="sans-serif" font-size="13" font-weight="bold" lengthAdjust="spacing" textLength="139" x="1082.5" y="1090.481">Admission Process</text><polygon fill="#181818" points="477,1124.6797,487,1128.6797,477,1132.6797,481,1128.6797" style="stroke:#181818;stroke-width:1.0;"/><line style="stroke:#181818;stroke-width:1.0;" x1="24" x2="483" y1="1128.6797" y2="1128.6797"/><text fill="#000000" font-family="sans-serif" font-size="13" lengthAdjust="spacing" textLength="251" x="31" y="1123.6138">submitAdmissionForm(admissionForm)</text><polygon fill="#181818" points="1270,1153.8125,1280,1157.8125,1270,1161.8125,1274,1157.8125" style="stroke:#181818;stroke-width:1.0;"/><line style="stroke:#181818;stroke-width:1.0;" x1="489" x2="1276" y1="1157.8125" y2="1157.8125"/><text fill="#000000" font-family="sans-serif" font-size="13" lengthAdjust="spacing" textLength="257" x="496" y="1152.7466">processAdmissionForm(admissionForm)</text><polygon fill="#181818" points="500,1182.9453,490,1186.9453,500,1190.9453,496,1186.9453" style="stroke:#181818;stroke-width:1.0;"/><line style="stroke:#181818;stroke-width:1.0;stroke-dasharray:2.0,2.0;" x1="494" x2="1281" y1="1186.9453" y2="1186.9453"/><text fill="#000000" font-family="sans-serif" font-size="13" lengthAdjust="spacing" textLength="97" x="506" y="1181.8794">AdmissionData</text><line style="stroke:#181818;stroke-width:1.0;" x1="489" x2="531" y1="1216.0781" y2="1216.0781"/><line style="stroke:#181818;stroke-width:1.0;" x1="531" x2="531" y1="1216.0781" y2="1229.0781"/><line style="stroke:#181818;stroke-width:1.0;" x1="490" x2="531" y1="1229.0781" y2="1229.0781"/><polygon fill="#181818" points="500,1225.0781,490,1229.0781,500,1233.0781,496,1229.0781" style="stroke:#181818;stroke-width:1.0;"/><text fill="#000000" font-family="sans-serif" font-size="13" lengthAdjust="spacing" textLength="254" x="496" y="1211.0122">validateAdmissionData(AdmissionData)</text><line style="stroke:#181818;stroke-width:1.0;" x1="489" x2="531" y1="1258.2109" y2="1258.2109"/><line style="stroke:#181818;stroke-width:1.0;" x1="531" x2="531" y1="1258.2109" y2="1271.2109"/><line style="stroke:#181818;stroke-width:1.0;" x1="490" x2="531" y1="1271.2109" y2="1271.2109"/><polygon fill="#181818" points="500,1267.2109,490,1271.2109,500,1275.2109,496,1271.2109" style="stroke:#181818;stroke-width:1.0;"/><text fill="#000000" font-family="sans-serif" font-size="13" lengthAdjust="spacing" textLength="193" x="496" y="1253.145">enrollStudent(AdmissionData)</text><polygon fill="#181818" points="35,1296.3438,25,1300.3438,35,1304.3438,31,1300.3438" style="stroke:#181818;stroke-width:1.0;"/><line style="stroke:#181818;stroke-width:1.0;" x1="29" x2="488" y1="1300.3438" y2="1300.3438"/><text fill="#000000" font-family="sans-serif" font-size="13" lengthAdjust="spacing" textLength="145" x="41" y="1295.2778">admissionCompleted()</text><rect fill="#EEEEEE" height="3" style="stroke:#EEEEEE;stroke-width:1.0;" width="2311" x="0" y="1328.9102"/><line style="stroke:#000000;stroke-width:1.0;" x1="0" x2="2311" y1="1328.9102" y2="1328.9102"/><line style="stroke:#000000;stroke-width:1.0;" x1="0" x2="2311" y1="1331.9102" y2="1331.9102"/><rect fill="#EEEEEE" height="23.1328" style="stroke:#000000;stroke-width:2.0;" width="207" x="1052" y="1318.3438"/><text fill="#000000" font-family="sans-serif" font-size="13" font-weight="bold" lengthAdjust="spacing" textLength="188" x="1058" y="1334.4106">User Profile Management</text><polygon fill="#181818" points="745,1368.6094,755,1372.6094,745,1376.6094,749,1372.6094" style="stroke:#181818;stroke-width:1.0;"/><line style="stroke:#181818;stroke-width:1.0;" x1="24" x2="751" y1="1372.6094" y2="1372.6094"/><text fill="#000000" font-family="sans-serif" font-size="13" lengthAdjust="spacing" textLength="115" x="31" y="1367.5435">viewProfile(userId)</text><polygon fill="#181818" points="35,1397.7422,25,1401.7422,35,1405.7422,31,1401.7422" style="stroke:#181818;stroke-width:1.0;"/><line style="stroke:#181818;stroke-width:1.0;" x1="29" x2="756" y1="1401.7422" y2="1401.7422"/><text fill="#000000" font-family="sans-serif" font-size="13" lengthAdjust="spacing" textLength="139" x="41" y="1396.6763">userProfileDisplayed()</text><polygon fill="#181818" points="745,1426.875,755,1430.875,745,1434.875,749,1430.875" style="stroke:#181818;stroke-width:1.0;"/><line style="stroke:#181818;stroke-width:1.0;" x1="24" x2="751" y1="1430.875" y2="1430.875"/><text fill="#000000" font-family="sans-serif" font-size="13" lengthAdjust="spacing" textLength="176" x="31" y="1425.8091">editProfile(userId, newData)</text><polygon fill="#181818" points="35,1456.0078,25,1460.0078,35,1464.0078,31,1460.0078" style="stroke:#181818;stroke-width:1.0;"/><line style="stroke:#181818;stroke-width:1.0;" x1="29" x2="756" y1="1460.0078" y2="1460.0078"/><text fill="#000000" font-family="sans-serif" font-size="13" lengthAdjust="spacing" textLength="104" x="41" y="1454.9419">profileUpdated()</text><rect fill="#EEEEEE" height="3" style="stroke:#EEEEEE;stroke-width:1.0;" width="2311" x="0" y="1488.5742"/><line style="stroke:#000000;stroke-width:1.0;" x1="0" x2="2311" y1="1488.5742" y2="1488.5742"/><line style="stroke:#000000;stroke-width:1.0;" x1="0" x2="2311" y1="1491.5742" y2="1491.5742"/><rect fill="#EEEEEE" height="23.1328" style="stroke:#000000;stroke-width:2.0;" width="148" x="1081.5" y="1478.0078"/><text fill="#000000" font-family="sans-serif" font-size="13" font-weight="bold" lengthAdjust="spacing" textLength="129" x="1087.5" y="1494.0747">Fee Management</text><polygon fill="#181818" points="288,1528.2734,298,1532.2734,288,1536.2734,292,1532.2734" style="stroke:#181818;stroke-width:1.0;"/><line style="stroke:#181818;stroke-width:1.0;" x1="24" x2="294" y1="1532.2734" y2="1532.2734"/><text fill="#000000" font-family="sans-serif" font-size="13" lengthAdjust="spacing" textLength="93" x="31" y="1527.2075">manageFees()</text><polygon fill="#181818" points="35,1557.4063,25,1561.4063,35,1565.4063,31,1561.4063" style="stroke:#181818;stroke-width:1.0;"/><line style="stroke:#181818;stroke-width:1.0;" x1="29" x2="299" y1="1561.4063" y2="1561.4063"/><text fill="#000000" font-family="sans-serif" font-size="13" lengthAdjust="spacing" textLength="238" x="41" y="1556.3403">Fee management interface displayed</text><polygon fill="#181818" points="288,1586.5391,298,1590.5391,288,1594.5391,292,1590.5391" style="stroke:#181818;stroke-width:1.0;"/><line style="stroke:#181818;stroke-width:1.0;" x1="24" x2="294" y1="1590.5391" y2="1590.5391"/><text fill="#000000" font-family="sans-serif" font-size="13" lengthAdjust="spacing" textLength="174" x="31" y="1585.4731">payFee(studentId, amount)</text><polygon fill="#181818" points="477,1615.6719,487,1619.6719,477,1623.6719,481,1619.6719" style="stroke:#181818;stroke-width:1.0;"/><line style="stroke:#181818;stroke-width:1.0;" x1="300" x2="483" y1="1619.6719" y2="1619.6719"/><text fill="#000000" font-family="sans-serif" font-size="13" lengthAdjust="spacing" textLength="165" x="307" y="1614.606">getStudentInfo(studentId)</text><polygon fill="#181818" points="35,1644.8047,25,1648.8047,35,1652.8047,31,1648.8047" style="stroke:#181818;stroke-width:1.0;"/><line style="stroke:#181818;stroke-width:1.0;" x1="29" x2="488" y1="1648.8047" y2="1648.8047"/><text fill="#000000" font-family="sans-serif" font-size="13" lengthAdjust="spacing" textLength="72" x="41" y="1643.7388">studentInfo</text><polygon fill="#181818" points="35,1673.9375,25,1677.9375,35,1681.9375,31,1677.9375" style="stroke:#181818;stroke-width:1.0;"/><line style="stroke:#181818;stroke-width:1.0;" x1="29" x2="299" y1="1677.9375" y2="1677.9375"/><text fill="#000000" font-family="sans-serif" font-size="13" lengthAdjust="spacing" textLength="155" x="41" y="1672.8716">feePaymentSuccessful()</text><rect fill="#EEEEEE" height="3" style="stroke:#EEEEEE;stroke-width:1.0;" width="2311" x="0" y="1706.5039"/><line style="stroke:#000000;stroke-width:1.0;" x1="0" x2="2311" y1="1706.5039" y2="1706.5039"/><line style="stroke:#000000;stroke-width:1.0;" x1="0" x2="2311" y1="1709.5039" y2="1709.5039"/><rect fill="#EEEEEE" height="23.1328" style="stroke:#000000;stroke-width:2.0;" width="206" x="1052.5" y="1695.9375"/><text fill="#000000" font-family="sans-serif" font-size="13" font-weight="bold" lengthAdjust="spacing" textLength="187" x="1058.5" y="1712.0044">Attendance Management</text><polygon fill="#181818" points="288,1746.2031,298,1750.2031,288,1754.2031,292,1750.2031" style="stroke:#181818;stroke-width:1.0;"/><line style="stroke:#181818;stroke-width:1.0;" x1="24" x2="294" y1="1750.2031" y2="1750.2031"/><text fill="#000000" font-family="sans-serif" font-size="13" lengthAdjust="spacing" textLength="117" x="31" y="1745.1372">markAttendance()</text><polygon fill="#181818" points="1413,1775.3359,1423,1779.3359,1413,1783.3359,1417,1779.3359" style="stroke:#181818;stroke-width:1.0;"/><line style="stroke:#181818;stroke-width:1.0;" x1="300" x2="1419" y1="1779.3359" y2="1779.3359"/><text fill="#000000" font-family="sans-serif" font-size="13" lengthAdjust="spacing" textLength="158" x="307" y="1774.27">markAttendance(record)</text><polygon fill="#181818" points="1572,1804.4688,1582,1808.4688,1572,1812.4688,1576,1808.4688" style="stroke:#181818;stroke-width:1.0;"/><line style="stroke:#181818;stroke-width:1.0;" x1="1425" x2="1578" y1="1808.4688" y2="1808.4688"/><text fill="#000000" font-family="sans-serif" font-size="13" lengthAdjust="spacing" textLength="97" x="1432" y="1803.4028">updateStatus()</text><polygon fill="#181818" points="311,1833.6016,301,1837.6016,311,1841.6016,307,1837.6016" style="stroke:#181818;stroke-width:1.0;"/><line style="stroke:#181818;stroke-width:1.0;" x1="305" x2="1424" y1="1837.6016" y2="1837.6016"/><text fill="#000000" font-family="sans-serif" font-size="13" lengthAdjust="spacing" textLength="182" x="317" y="1832.5356">attendanceRecordUpdated()</text><polygon fill="#181818" points="288,1862.7344,298,1866.7344,288,1870.7344,292,1866.7344" style="stroke:#181818;stroke-width:1.0;"/><line style="stroke:#181818;stroke-width:1.0;" x1="24" x2="294" y1="1866.7344" y2="1866.7344"/><text fill="#000000" font-family="sans-serif" font-size="13" lengthAdjust="spacing" textLength="252" x="31" y="1861.6685">addAttendanceRemark(record, remark)</text><polygon fill="#181818" points="1413,1891.8672,1423,1895.8672,1413,1899.8672,1417,1895.8672" style="stroke:#181818;stroke-width:1.0;"/><line style="stroke:#181818;stroke-width:1.0;" x1="300" x2="1419" y1="1895.8672" y2="1895.8672"/><text fill="#000000" font-family="sans-serif" font-size="13" lengthAdjust="spacing" textLength="178" x="307" y="1890.8013">addRemark(record, remark)</text><polygon fill="#181818" points="1572,1921,1582,1925,1572,1929,1576,1925" style="stroke:#181818;stroke-width:1.0;"/><line style="stroke:#181818;stroke-width:1.0;" x1="1425" x2="1578" y1="1925" y2="1925"/><text fill="#000000" font-family="sans-serif" font-size="13" lengthAdjust="spacing" textLength="129" x="1432" y="1919.9341">addRemark(remark)</text><polygon fill="#181818" points="311,1950.1328,301,1954.1328,311,1958.1328,307,1954.1328" style="stroke:#181818;stroke-width:1.0;"/><line style="stroke:#181818;stroke-width:1.0;" x1="305" x2="1424" y1="1954.1328" y2="1954.1328"/><text fill="#000000" font-family="sans-serif" font-size="13" lengthAdjust="spacing" textLength="173" x="317" y="1949.0669">attendanceRemarkAdded()</text><rect fill="#EEEEEE" height="3" style="stroke:#EEEEEE;stroke-width:1.0;" width="2311" x="0" y="1982.6992"/><line style="stroke:#000000;stroke-width:1.0;" x1="0" x2="2311" y1="1982.6992" y2="1982.6992"/><line style="stroke:#000000;stroke-width:1.0;" x1="0" x2="2311" y1="1985.6992" y2="1985.6992"/><rect fill="#EEEEEE" height="23.1328" style="stroke:#000000;stroke-width:2.0;" width="161" x="1075" y="1972.1328"/><text fill="#000000" font-family="sans-serif" font-size="13" font-weight="bold" lengthAdjust="spacing" textLength="142" x="1081" y="1988.1997">Exam Management</text><polygon fill="#181818" points="288,2022.3984,298,2026.3984,288,2030.3984,292,2026.3984" style="stroke:#181818;stroke-width:1.0;"/><line style="stroke:#181818;stroke-width:1.0;" x1="24" x2="294" y1="2026.3984" y2="2026.3984"/><text fill="#000000" font-family="sans-serif" font-size="13" lengthAdjust="spacing" textLength="106" x="31" y="2021.3325">manageExams()</text><polygon fill="#181818" points="35,2051.5313,25,2055.5313,35,2059.5313,31,2055.5313" style="stroke:#181818;stroke-width:1.0;"/><line style="stroke:#181818;stroke-width:1.0;" x1="29" x2="299" y1="2055.5313" y2="2055.5313"/><text fill="#000000" font-family="sans-serif" font-size="13" lengthAdjust="spacing" textLength="251" x="41" y="2050.4653">Exam management interface displayed</text><polygon fill="#181818" points="288,2080.6641,298,2084.6641,288,2088.6641,292,2084.6641" style="stroke:#181818;stroke-width:1.0;"/><line style="stroke:#181818;stroke-width:1.0;" x1="24" x2="294" y1="2084.6641" y2="2084.6641"/><text fill="#000000" font-family="sans-serif" font-size="13" lengthAdjust="spacing" textLength="183" x="31" y="2079.5981">scheduleExam(examDetails)</text><polygon fill="#181818" points="1714.5,2109.7969,1724.5,2113.7969,1714.5,2117.7969,1718.5,2113.7969" style="stroke:#181818;stroke-width:1.0;"/><line style="stroke:#181818;stroke-width:1.0;" x1="300" x2="1720.5" y1="2113.7969" y2="2113.7969"/><text fill="#000000" font-family="sans-serif" font-size="13" lengthAdjust="spacing" textLength="167" x="307" y="2108.731">createExam(examDetails)</text><polygon fill="#181818" points="311,2138.9297,301,2142.9297,311,2146.9297,307,2142.9297" style="stroke:#181818;stroke-width:1.0;"/><line style="stroke:#181818;stroke-width:1.0;" x1="305" x2="1725.5" y1="2142.9297" y2="2142.9297"/><text fill="#000000" font-family="sans-serif" font-size="13" lengthAdjust="spacing" textLength="97" x="317" y="2137.8638">examCreated()</text><rect fill="#EEEEEE" height="3" style="stroke:#EEEEEE;stroke-width:1.0;" width="2311" x="0" y="2171.4961"/><line style="stroke:#000000;stroke-width:1.0;" x1="0" x2="2311" y1="2171.4961" y2="2171.4961"/><line style="stroke:#000000;stroke-width:1.0;" x1="0" x2="2311" y1="2174.4961" y2="2174.4961"/><rect fill="#EEEEEE" height="23.1328" style="stroke:#000000;stroke-width:2.0;" width="150" x="1080.5" y="2160.9297"/><text fill="#000000" font-family="sans-serif" font-size="13" font-weight="bold" lengthAdjust="spacing" textLength="131" x="1086.5" y="2176.9966">Generate Reports</text><polygon fill="#181818" points="288,2211.1953,298,2215.1953,288,2219.1953,292,2215.1953" style="stroke:#181818;stroke-width:1.0;"/><line style="stroke:#181818;stroke-width:1.0;" x1="24" x2="294" y1="2215.1953" y2="2215.1953"/><text fill="#000000" font-family="sans-serif" font-size="13" lengthAdjust="spacing" textLength="117" x="31" y="2210.1294">generateReports()</text><polygon fill="#181818" points="1850.5,2240.3281,1860.5,2244.3281,1850.5,2248.3281,1854.5,2244.3281" style="stroke:#181818;stroke-width:1.0;"/><line style="stroke:#181818;stroke-width:1.0;" x1="300" x2="1856.5" y1="2244.3281" y2="2244.3281"/><text fill="#000000" font-family="sans-serif" font-size="13" lengthAdjust="spacing" textLength="117" x="307" y="2239.2622">generateReports()</text><polygon fill="#181818" points="35,2269.4609,25,2273.4609,35,2277.4609,31,2273.4609" style="stroke:#181818;stroke-width:1.0;"/><line style="stroke:#181818;stroke-width:1.0;" x1="29" x2="1861.5" y1="2273.4609" y2="2273.4609"/><text fill="#000000" font-family="sans-serif" font-size="13" lengthAdjust="spacing" textLength="124" x="41" y="2268.395">reportsGenerated()</text><rect fill="#EEEEEE" height="3" style="stroke:#EEEEEE;stroke-width:1.0;" width="2311" x="0" y="2302.0273"/><line style="stroke:#000000;stroke-width:1.0;" x1="0" x2="2311" y1="2302.0273" y2="2302.0273"/><line style="stroke:#000000;stroke-width:1.0;" x1="0" x2="2311" y1="2305.0273" y2="2305.0273"/><rect fill="#EEEEEE" height="23.1328" style="stroke:#000000;stroke-width:2.0;" width="164" x="1073.5" y="2291.4609"/><text fill="#000000" font-family="sans-serif" font-size="13" font-weight="bold" lengthAdjust="spacing" textLength="145" x="1079.5" y="2307.5278">Leave Management</text><polygon fill="#181818" points="288,2341.7266,298,2345.7266,288,2349.7266,292,2345.7266" style="stroke:#181818;stroke-width:1.0;"/><line style="stroke:#181818;stroke-width:1.0;" x1="24" x2="294" y1="2345.7266" y2="2345.7266"/><text fill="#000000" font-family="sans-serif" font-size="13" lengthAdjust="spacing" textLength="101" x="31" y="2340.6606">manageLeave()</text><polygon fill="#181818" points="1983,2370.8594,1993,2374.8594,1983,2378.8594,1987,2374.8594" style="stroke:#181818;stroke-width:1.0;"/><line style="stroke:#181818;stroke-width:1.0;" x1="300" x2="1989" y1="2374.8594" y2="2374.8594"/><text fill="#000000" font-family="sans-serif" font-size="13" lengthAdjust="spacing" textLength="233" x="307" y="2369.7935">displayLeaveManagementInterface()</text><polygon fill="#181818" points="35,2399.9922,25,2403.9922,35,2407.9922,31,2403.9922" style="stroke:#181818;stroke-width:1.0;"/><line style="stroke:#181818;stroke-width:1.0;" x1="29" x2="1994" y1="2403.9922" y2="2403.9922"/><text fill="#000000" font-family="sans-serif" font-size="13" lengthAdjust="spacing" textLength="253" x="41" y="2398.9263">Leave management interface displayed</text><polygon fill="#181818" points="1983,2429.125,1993,2433.125,1983,2437.125,1987,2433.125" style="stroke:#181818;stroke-width:1.0;"/><line style="stroke:#181818;stroke-width:1.0;" x1="24" x2="1989" y1="2433.125" y2="2433.125"/><text fill="#000000" font-family="sans-serif" font-size="13" lengthAdjust="spacing" textLength="160" x="31" y="2428.0591">applyLeave(leaveDetails)</text><polygon fill="#181818" points="2247,2458.2578,2257,2462.2578,2247,2466.2578,2251,2462.2578" style="stroke:#181818;stroke-width:1.0;"/><line style="stroke:#181818;stroke-width:1.0;" x1="1995" x2="2253" y1="2462.2578" y2="2462.2578"/><text fill="#000000" font-family="sans-serif" font-size="13" lengthAdjust="spacing" textLength="240" x="2002" y="2457.1919">submitLeaveApplication(leaveDetails)</text><polygon fill="#181818" points="2006,2487.3906,1996,2491.3906,2006,2495.3906,2002,2491.3906" style="stroke:#181818;stroke-width:1.0;"/><line style="stroke:#181818;stroke-width:1.0;" x1="2000" x2="2258" y1="2491.3906" y2="2491.3906"/><text fill="#000000" font-family="sans-serif" font-size="13" lengthAdjust="spacing" textLength="180" x="2012" y="2486.3247">leaveApplicationProcessed()</text><polygon fill="#181818" points="35,2516.5234,25,2520.5234,35,2524.5234,31,2520.5234" style="stroke:#181818;stroke-width:1.0;"/><line style="stroke:#181818;stroke-width:1.0;" x1="29" x2="1994" y1="2520.5234" y2="2520.5234"/><text fill="#000000" font-family="sans-serif" font-size="13" lengthAdjust="spacing" textLength="181" x="41" y="2515.4575">leaveApplicationSubmitted()</text><!--SRC=[bLPTRziW57tFh-3HaTe_4AcJggRR8dLLrMXFqnwekKdHRF00f-k_7nSm1cAdxaiKBkUU-tK0qzf8HNvgKAjQ2gDaGxPKlxv8gbYqtBAMQysb-445FIPGz2jjZ_2c1ni8mysxC-qCjCCwydsLgbsjRcx8bkkkeHv9f1Xp83StAun2hh-CnWrHyBS7RH1UhLSZsgAI-1jo1FD0pOXCDWSi9hOX1p3rwx0SaFYVN9US4VNhTywNfvZ2aWGj2ElP4EPBTeb5xDfrmnNiQLlRihG7ISStf5PWYxFEQArw-xEbXgvN2OZ4UBXzvnnOjPxcetOeH_4i6t1aLyJE4sReSElMuUVvD9WdnK-yWIFeGDb5mmpn2DY3gK93EcRp9jPWk3WkKaZlN0QFKYG-LEJpOEPYxGGt7AD5bP8d9MlGEerK7eaDuS4lxWGl6xe4PmHu1b2e0bJgZURK5TTEFUUHy-Cq5SoNIrFSjn2GXHPxj3-0IPsPygFUT2NiZnVRx96oa65Hm2-Vgo3IixFbYq3hAEFfF85n4xFSiQjXleyV9-sHMTwp1FDbUBsoyiB9YhYtISRkVr9hkdzfkScraartaUOw7sePpHBzOMik1uu-9zfmbkeTVQjijLv81SBUHStUzCpUbKieYjDm9zkkWN4Mhkrs30Tx2osvXKyStWBStN4xTk463i3mtkKQpbXHmpdh5Pwe2nTyvz6Zzh2Ohp1NGt9NjWvWeJFt99Aq8maN1jI1rZ2yOVQmJh1szDqwLjeF1lEdhUo5AKAS3zG-sc6QEt6G8y6bQUhHOQg20y0JVSViztsDeZ_qpN3qZ071gAWNDKhz6V5biyQTM4hXeA2M2kieaRdxiuF5DynGqxjdPCehoOuM18aI9cgXZAKHCTEGdttttVBZyYp7ZEV22bE22uupHRhkCXR5Vl-FjalLZjWPkJkQp-jTrw_0-iOnLs1_jc0eRtGH0xVt0HhVr7EV35P4Gc3o1jhAXzUSF4CdbT4pfGzV6G5Lbk_DWKkgANm1IRu7FQJyh7W0Ubfy0pbmcPGpHiM52IJ6rXtxC27hdEB7z7mU2uUQXwHTr_Y0LOE_SKHbfE_FnGFj0BVMdTVKs5khy8_uyvXDuHc-2bnRfmiiFVOk0p-8_m00]--></g></svg>